<svg width="16" height="16" viewBox="0 0 16 16" fill="none" xmlns="http://www.w3.org/2000/svg">
<path fill-rule="evenodd" clip-rule="evenodd" d="M7.9996 10.1206L13.3026 15.4246C13.584 15.706 13.9657 15.8641 14.3636 15.8641C14.7616 15.8641 15.1432 15.706 15.4246 15.4246C15.706 15.1432 15.8641 14.7616 15.8641 14.3636C15.8641 13.9657 15.706 13.584 15.4246 13.3026L10.1196 7.99962L15.4236 2.69662C15.5629 2.55729 15.6733 2.39189 15.7487 2.20987C15.824 2.02785 15.8628 1.83277 15.8627 1.63577C15.8627 1.43877 15.8238 1.24371 15.7484 1.06172C15.673 0.879735 15.5624 0.714389 15.4231 0.575122C15.2838 0.435855 15.1184 0.325396 14.9364 0.25005C14.7543 0.174704 14.5592 0.135948 14.3623 0.135995C14.1653 0.136041 13.9702 0.174889 13.7882 0.25032C13.6062 0.325752 13.4409 0.43629 13.3016 0.575622L7.9996 5.87862L2.6966 0.575622C2.5583 0.432293 2.39284 0.317943 2.20987 0.239244C2.0269 0.160546 1.83009 0.119074 1.63092 0.11725C1.43176 0.115426 1.23422 0.153286 1.04984 0.22862C0.865462 0.303955 0.697932 0.415255 0.557027 0.556027C0.416123 0.696799 0.304664 0.864224 0.229156 1.04853C0.153648 1.23284 0.115602 1.43034 0.117238 1.62951C0.118874 1.82868 0.16016 2.02553 0.238686 2.20857C0.317212 2.39161 0.431406 2.55718 0.574604 2.69562L5.8796 7.99962L0.575604 13.3026C0.29421 13.584 0.136124 13.9657 0.136124 14.3636C0.136124 14.7616 0.29421 15.1432 0.575604 15.4246C0.856999 15.706 1.23865 15.8641 1.6366 15.8641C2.03456 15.8641 2.41621 15.706 2.6976 15.4246L7.9996 10.1196V10.1206Z" fill="#333333"/>
</svg>
